# xmcd CD database file generated by Grip 3.3.1
# 
# Track frame offsets:
#       150
#       3165
#       30580
#       48087
#       69292
#       88235
#       96815
#       118577
#       142825
#       156495
#       166112
# 
# Disc length: 2371 seconds
# 
# Revision: 6
# Processed by: cddbd v1.5.2PL0 Copyright (c) Steve Scherf et al.
# Submitted via: Grip 3.3.1
# 
DISCID=7d09410b
DTITLE=Blonde Redhead - Melody Of Certain Damaged Lemons
DYEAR=1900
DGENRE=Blues
TTITLE0=Equally Damaged
TTITLE1=In Particular
TTITLE2=Melody Of Certain Three
TTITLE3=Hated Because Of Great Qualities
TTITLE4=Loved Despite Of Great Faults
TTITLE5=Ballad Of Lemons
TTITLE6=This Is Not
TTITLE7=A Cure
TTITLE8=For The Damaged
TTITLE9=Mother
TTITLE10=For The Damaged Coda
EXTD=
EXTT0=
EXTT1=
EXTT2=
EXTT3=
EXTT4=
EXTT5=
EXTT6=
EXTT7=
EXTT8=
EXTT9=
EXTT10=
PLAYORDER=
